# xmcd
#
# Track frame offsets:
#	150
#	32605
#	56620
#	107576
#	149624
#	177060
#	201763
#	241554
#	277902
#
# Disc length: 3895 seconds
#
# Revision: 0
# Processed by: cddbd v1.5.2PL0 Copyright (c) Steve Scherf et al.
# Submitted via: audiograbber 1.83.01
#
DISCID=720f3509
DTITLE=Grateful Dead - 94-04-04 Orlando Arena, Orlando FL
DYEAR=1900
DGENRE=
TTITLE0=Help On The Way
TTITLE1=Slipknot!
TTITLE2=Franklin's Tower
TTITLE3=Little Red Rooster
TTITLE4=Brown Eyed Women
TTITLE5=When I Paint My Masterpiece
TTITLE6=Loose Lucy
TTITLE7=Cassidy
TTITLE8=Don't Ease Me In
EXTD=
EXTT0=
EXTT1=
EXTT2=
EXTT3=
EXTT4=
EXTT5=
EXTT6=
EXTT7=
EXTT8=
PLAYORDER=
